<svg xmlns="http://www.w3.org/2000/svg" viewBox="0 0 1000 625"><defs><linearGradient id="a" x1="0" x2="1"><stop stop-color="#1a120e"/><stop offset="1" stop-color="#5a2e18"/></linearGradient><linearGradient id="b" x1="0" y1="1" x2="1"><stop stop-color="#e9a54c"/><stop offset="1" stop-color="#ffdbc0"/></linearGradient></defs><rect width="1000" height="625" fill="url(#a)"/><circle cx="790" cy="330" r="220" fill="#8d4b26" opacity=".35"/><rect x="60" y="45" width="880" height="535" rx="24" fill="#110d0b" stroke="#ffffff25"/><rect x="60" y="45" width="880" height="55" rx="24" fill="#201713"/><circle cx="90" cy="72" r="7" fill="#ff6a5f"/><circle cx="115" cy="72" r="7" fill="#ffc95c"/><circle cx="140" cy="72" r="7" fill="#61d284"/><text x="100" y="150" font-family="Arial" font-size="21" font-weight="700" fill="#f3c887">MAISON</text><text x="100" y="215" font-family="Georgia" font-size="55" font-weight="700" fill="white">Une expérience</text><text x="100" y="275" font-family="Georgia" font-size="55" font-weight="700" fill="url(#b)">culinaire unique</text><rect x="100" y="315" width="165" height="48" rx="14" fill="#d08a3c"/><text x="182" y="346" text-anchor="middle" font-family="Arial" font-size="15" font-weight="700" fill="white">RÉSERVER</text><rect x="610" y="145" width="260" height="340" rx="130" fill="#33231a"/><circle cx="740" cy="315" r="105" fill="#e8b56f"/><circle cx="740" cy="315" r="82" fill="#efe0c7"/><circle cx="720" cy="290" r="23" fill="#77452a"/><circle cx="775" cy="335" r="26" fill="#5b7e3c"/><circle cx="700" cy="350" r="18" fill="#ba4b3d"/></svg>
